<?xml version="1.0" encoding="UTF-8"?>
<svg width="1200pt" height="1200pt" version="1.1" viewBox="0 0 1200 1200" xmlns="http://www.w3.org/2000/svg">
 <path d="m600 100c-132.61 0-259.79 52.68-353.55 146.45-93.766 93.77-146.45 220.95-146.45 353.55s52.68 259.79 146.45 353.55c93.77 93.766 220.95 146.45 353.55 146.45s259.79-52.68 353.55-146.45c93.766-93.77 146.45-220.95 146.45-353.55 0-87.77-23.102-173.99-66.988-250-43.883-76.008-107-139.13-183.01-183.01-76.008-43.887-162.23-66.988-250-66.988zm216 450-233 233.5c-10.996 11-25.945 17.129-41.5 17-15.402 0.10547-30.191-6.0273-41-17l-116.5-117.5c-14.059-14.762-19.336-35.82-13.898-55.465 5.4336-19.648 20.785-35 40.434-40.434 19.645-5.4375 40.703-0.16016 55.465 13.898l75.5 75 192.5-192c14.828-14.648 36.34-20.273 56.441-14.758 20.098 5.5156 35.727 21.336 41 41.5 5.2695 20.164-0.61328 41.609-15.441 56.258z" fill="#007335"/>
</svg>
