<?xml version="1.0" encoding="UTF-8"?>
<svg width="1200pt" height="1200pt" version="1.1" viewBox="0 0 1200 1200" xmlns="http://www.w3.org/2000/svg">
 <path d="m600 24c-152.77 0-299.27 60.684-407.29 168.71-108.02 108.02-168.71 254.53-168.71 407.29s60.684 299.27 168.71 407.29c108.02 108.02 254.53 168.71 407.29 168.71s299.27-60.684 407.29-168.71c108.02-108.02 168.71-254.53 168.71-407.29s-60.684-299.27-168.71-407.29c-108.02-108.02-254.53-168.71-407.29-168.71zm72 990h-144v-144h144zm38.52-331.44c-12.246 6.9492-22.328 17.152-29.125 29.48-6.8008 12.328-10.051 26.297-9.3945 40.359v9.6016h-144v-9.6016c-0.58984-41.008 10.254-81.367 31.324-116.55 21.07-35.184 51.527-63.805 87.957-82.645 18.219-8.8711 33.578-22.691 44.316-39.879 10.738-17.191 16.422-37.055 16.402-57.32-0.73047-28.414-12.34-55.461-32.441-75.559-20.098-20.102-47.145-31.711-75.559-32.441-28.645 0-56.113 11.379-76.367 31.633-20.254 20.254-31.633 47.723-31.633 76.367h-144c0-66.836 26.551-130.93 73.809-178.19 47.258-47.258 111.36-73.809 178.19-73.809 66.562 0.87109 130.16 27.699 177.23 74.77 47.07 47.074 73.898 110.67 74.77 177.23 0.19922 47.266-12.977 93.625-38.016 133.71-25.035 40.094-60.906 72.281-103.46 92.844z" fill="#9b9b9b"/>
</svg>
